<svg width="2861" height="1783" xmlns="http://www.w3.org/2000/svg" xmlns:xlink="http://www.w3.org/1999/xlink" overflow="hidden"><defs><clipPath id="clip0"><rect x="768" y="347" width="2861" height="1783"/></clipPath></defs><g clip-path="url(#clip0)" transform="translate(-768 -347)"><path d="M0 480 110.513 480 110.944 477.912 166.495 210.003 222.166 480 333 480 333 0 257.572 0 257.572 354.853 188.014 0 144.646 0 75.4281 353.227 75.4281 0 0 0Z" fill="#0D0D0D" fill-rule="evenodd" transform="matrix(1 0 0 -1 2214 1433)"/><path d="M0 365 78.0514 365 78.0514 88.429C78.0514 72.87 85.545 65.6256 101.632 65.6256 108.008 65.6256 114.522 67.3428 121.002 70.7298 127.577 74.1489 135.962 79.487 145.949 86.6057L145.949 365 224 365 224 6.36359 150.057 6.36359 150.057 39.1649C138.651 29.3504 129.978 22.2995 123.637 17.6761 116.231 12.2381 107.85 7.89123 98.7389 4.76123 89.611 1.602 77.8491 0 63.7822 0 57.5773 0 51.7209 0.680434 46.3712 2.01712 34.5287 4.97421 24.594 11.2465 16.8411 20.6588 5.66714 34.1989 0 53.041 0 76.6635Z" fill="#0D0D0D" fill-rule="evenodd" transform="matrix(1 0 0 -1 2612 1439)"/><path d="M108.423 372C122.857 372 136.248 369.745 148.237 365.298 160.247 360.835 171.13 354.165 180.525 345.474 189.9 336.807 197.871 326.494 204.227 314.817 210.603 303.096 215.131 289.951 217.682 275.738L218.15 273.129 151.064 261.708 150.618 264.266C145.537 292.561 132.783 306.316 111.612 306.316 102.79 306.316 95.6053 304.018 90.2912 299.489 85.0196 294.991 82.4688 288.726 82.4688 280.34 82.4688 269.551 90.3767 257.513 105.978 244.559 122.219 231.045 139.011 217.814 155.868 205.226 173.022 192.424 187.944 177.323 200.252 160.347L200.252 160.342C212.687 143.103 219 122.008 219 97.646 219 66.4781 209.307 42.1288 190.155 25.2714 171.152 8.50329 145.665 0 114.46 0 83.0642 0 57.4073 8.73127 38.2553 25.9507 19.1671 43.1104 6.44904 68.152 0.437822 100.379L0 102.731 68.9923 122.389 69.4388 119.429C71.9045 102.734 76.6448 89.3707 83.5742 79.7134 90.2912 70.2707 100.601 65.6861 115.098 65.6861 120.625 65.6861 125.79 66.8315 130.487 69.0911 135.058 71.278 138.629 74.5128 141.094 78.7039 143.603 82.9456 144.878 87.9526 144.878 93.5979 144.878 106.171 140.329 116.931 131.359 125.592 121.9 134.758 104.895 148.651 80.8322 166.892 56.4087 185.377 38.0638 202.622 26.3303 218.149 14.3843 233.876 8.34314 252.973 8.34314 274.91 8.34314 293.547 12.8451 310.481 21.7176 325.244 30.6241 340.027 42.7619 351.642 57.8112 359.761 72.8183 367.881 89.8451 372 108.423 372Z" fill="#0D0D0D" fill-rule="evenodd" transform="matrix(1 0 0 -1 2882 1439)"/><path d="M0 358.847 78 358.847 78 0 0 0ZM0 480 78 480 78 407.653 0 407.653Z" fill="#0D0D0D" fill-rule="evenodd" transform="matrix(1 0 0 -1 3154 1433)"/><path d="M115.627 372C135.938 372 153.639 368.88 168.241 362.723 182.928 356.505 194.983 347.559 204.067 336.13 213.129 324.743 219.836 311.127 224.038 295.658 228.198 280.338 230.512 262.277 230.936 241.978L231 239.299 153.108 239.299 153.108 251.122C153.108 288.262 140.799 306.316 115.458 306.316 90.1162 306.316 77.8066 288.262 77.8066 251.122L77.8066 120.879C77.8066 101.426 81.0114 87.1411 87.3147 78.4225 93.4909 69.8512 102.681 65.6861 115.458 65.6861 128.213 65.6861 137.424 69.8021 143.643 78.2649 149.925 86.8813 153.108 101.221 153.108 120.879L153.108 145.736 230.936 145.736 230.936 133.891C230.936 91.9815 221.746 58.8734 203.621 35.4909 185.347 11.9425 155.74 0 115.627 0 75.6842 0 46.0771 12.0618 27.6126 35.8533 9.29601 59.4294 0 92.4479 0 133.997L0 237.685C0 279.673 9.23228 312.86 27.4426 336.319 45.8434 359.996 75.5143 372 115.627 372Z" fill="#0D0D0D" fill-rule="evenodd" transform="matrix(1 0 0 -1 3294 1439)"/><path d="M90.0504 116.963 68.887 64.9026 111.024 64.9026ZM70.9497 164 111.218 164 181 0 137.087 0 124.661 30.843 55.0074 30.843 42.5817 0 0 0Z" fill="#0D0D0D" fill-rule="evenodd" transform="matrix(1 0 0 -1 2146 1766)"/><path d="M86.8472 168C98.5836 168 110.324 165.538 121.746 160.687 133.162 155.835 143.024 149.152 151.059 140.82L152.668 139.152 128.428 109.426 126.391 111.854C121.223 118.011 115.084 122.909 108.137 126.417 101.233 129.895 94.2217 131.659 87.2998 131.659 78.9374 131.659 71.1801 129.581 64.2481 125.483 57.3053 121.383 51.7737 115.719 47.8089 108.65 43.8358 101.566 41.8229 93.5753 41.8229 84.9018 41.8229 76.2197 43.8383 68.1896 47.8136 61.0333 51.7846 53.8814 57.3179 48.141 64.2607 43.9704 71.1866 39.8045 78.9392 37.6952 87.2998 37.6952 93.9581 37.6952 100.841 39.3205 107.763 42.5276 114.751 45.7617 121.07 50.1739 126.546 55.6407L128.477 57.5677 153 30.9783 151.284 29.2064C142.651 20.2823 132.388 13.1134 120.779 7.89687 109.126 2.65726 97.2531 0 85.4954 0 69.6008 0 54.9602 3.71836 41.978 11.0507 28.9789 18.3873 18.6202 28.6101 11.1922 41.4388 3.76464 54.2527 0 68.7243 0 84.4499 0 100.04 3.84796 114.371 11.4367 127.047 19.0172 139.713 29.5678 149.816 42.7946 157.079 56.0018 164.324 70.8231 168 86.8472 168Z" fill="#0D0D0D" fill-rule="evenodd" transform="matrix(1 0 0 -1 2367 1768)"/><path d="M90.0484 116.963 68.8845 64.9026 111.025 64.9026ZM70.9472 164 111.216 164 181 0 137.086 0 124.663 30.843 55.0063 30.843 42.5807 0 0 0Z" fill="#0D0D0D" fill-rule="evenodd" transform="matrix(1 0 0 -1 2559 1766)"/><path d="M40.8117 128.578 40.8117 35.4221 70.4066 35.4221C78.6035 35.4221 86.0777 37.3968 92.6122 41.2925L92.6144 41.2925C99.1407 45.178 104.304 50.6665 107.972 57.6104 111.64 64.5998 113.527 72.7309 113.527 81.7736 113.527 90.7993 111.534 98.9927 107.654 106.129 103.774 113.223 98.4136 118.799 91.7323 122.697 85.0344 126.599 77.3293 128.578 68.8313 128.578ZM0 164 69.5055 164C85.923 164 100.805 160.501 113.739 153.604 126.737 146.67 136.977 136.876 144.165 124.486 151.353 112.115 155 97.8228 155 82.0022 155 66.1754 151.289 51.8744 143.932 39.4928 136.575 27.1049 126.185 17.3128 113.061 10.3944 99.9824 3.49908 84.8733 0 68.1547 0L0 0Z" fill="#0D0D0D" fill-rule="evenodd" transform="matrix(1 0 0 -1 2795 1766)"/><path d="M0 164 125.514 164 125.514 129.031 40.896 129.031 40.896 99.8253 116.953 99.8253 116.953 64.8559 40.896 64.8559 40.896 34.9694 128 34.9694 128 0 0 0Z" fill="#0D0D0D" fill-rule="evenodd" transform="matrix(1 0 0 -1 3013 1766)"/><path d="M0 164 44.0982 164 91.8415 69.6954 139.136 164 183 164 183 0 145.594 0 145.594 98.6511 104.8 16.1003 78.4346 16.1003 37.4058 98.7025 37.4058 0 0 0Z" fill="#0D0D0D" fill-rule="evenodd" transform="matrix(1 0 0 -1 3209 1766)"/><path d="M0 164 41.6796 164 80.4346 95.5193 118.321 164 160 164 100.84 53.2171 100.84 0 60.0717 0 60.0717 52.3058Z" fill="#0D0D0D" fill-rule="evenodd" transform="matrix(1 0 0 -1 3447 1766)"/><path d="M76.2103-1.42756 81.7417-1.42756 81.7417 208.712 162.31 208.712 162.31-1.42756 248.26-1.42756 248.26 477.741 162.31 477.741 162.31 284.731 81.7417 284.731 81.7417 477.741 81.5289 477.741 81.5289 658.702 300.147 774.483 700.517 986.472 1327.88 667.947 1327.88 555.821 1331.74 555.821 1346.22 555.821 1395.79 555.821 1410.28 555.821 1414.13 555.821 1414.13 720.801 702.113 1082.32 699.664 1083.57 302.04 872.987 302.04 930.771 185.944 930.771 185.944 811.504 185.944 807.148-0.868013 708.198-0.868013 477.741-0.868013 475.127-0.868013 1.18643-0.868013-1.42756 0.600352-1.42756 76.2103-1.42756" fill="#005686" fill-rule="evenodd" transform="matrix(1 0 0 -1 882 1431)"/><path d="M153.288 119.953C153.288 100.289 150.08 85.9511 143.756 77.339 137.521 68.8762 128.268 64.7599 115.467 64.7599 102.649 64.7599 93.3913 68.9251 87.1698 77.4965 80.8524 86.1958 77.6499 100.481 77.6499 119.953L77.6499 250.196C77.6499 287.336 90.0204 305.39 115.467 305.39 140.916 305.39 153.288 287.336 153.288 250.196ZM205.469 333.817C196.329 345.545 184.216 354.796 169.471 361.31 154.806 367.788 136.688 371.074 115.619 371.074 75.3069 371.074 45.5063 359.07 27.0467 335.396 8.73838 311.943-0.542744 278.758-0.542744 236.759L-0.542744 133.071C-0.542744 91.522 8.78948 58.5032 27.1958 34.925 45.773 11.1356 75.5222-0.926142 115.619-0.926142 155.926-0.926142 185.675 11.0314 204.041 34.6076 222.234 57.9731 231.458 91.1002 231.458 133.071L231.458 236.759C231.458 256.849 229.402 275.261 225.347 291.484L225.347 291.486C221.249 307.858 214.563 322.099 205.469 333.817" fill="#005686" fill-rule="evenodd" transform="matrix(1 0 0 -1 1165 1438)"/><path d="M76.4781 233.974 76.4781 250.367C76.4781 287.391 88.7926 305.39 114.124 305.39 139.458 305.39 151.775 287.391 151.775 250.367L151.775 233.974ZM229.611 168.288 229.611 236.759C229.611 256.877 227.559 275.291 223.507 291.486 219.422 307.886 212.772 322.126 203.741 333.817 194.64 345.547 182.584 354.796 167.905 361.31 153.305 367.788 135.268 371.074 114.122 371.074 74.0862 371.031 44.4797 359.027 26.1247 335.396 7.89908 311.943-1.3419 278.756-1.3419 236.759L-1.3419 133.071C-1.3419 91.522 7.95021 58.5032 26.2734 34.925 44.7219 11.1824 74.2772-0.879276 114.294-0.926142 189.304-0.926142 228.102 42.4294 229.611 127.935L229.658 130.605 151.775 130.605 151.775 120.039C151.775 100.34 148.587 85.9808 142.304 77.3583 136.104 68.8806 126.886 64.7599 114.124 64.7599 101.39 64.7599 92.1799 68.9316 85.9762 77.5179 79.6723 86.2385 76.4781 100.545 76.4781 120.039L76.4781 168.288 229.611 168.288" fill="#005686" fill-rule="evenodd" transform="matrix(1 0 0 -1 1924 1438)"/><path d="M2829.72 661.32 1237.26 661.32C1224.63 661.32 1213.5 653.087 1209.74 640.999L1147.09 437.543 1069.31 1012.67C1067.38 1026.88 1055.29 1037.47 1040.97 1037.57L1040.78 1037.57C1026.52 1037.57 1014.42 1027.12 1012.3 1013.01L896.879 226.333 781.894 1012.52C779.822 1026.67 767.678 1037.12 753.413 1037.12L753.268 1037.12C738.906 1037.03 726.811 1026.43 724.882 1012.23L645.704 430.851 589.751 631.078C586.235 643.503 574.91 652.075 561.992 652.075L27.2554 652.075C11.3526 652.075-1.51519 639.218-1.51519 623.327-1.51519 607.434 11.3526 594.577 27.2554 594.577L540.162 594.577 627.775 296.257C631.439 283.111 643.823 274.392 657.462 275.311 671.052 276.272 682.137 286.625 684.015 300.156L754.424 802.513 868.301 24.1317C870.375 10.0222 882.47-0.428607 896.783-0.428607 911.048-0.428607 923.192 10.0222 925.264 24.1317L1039.67 799.623 1107.67 300.494C1109.45 287.107 1120.35 276.801 1133.84 275.694 1147.28 274.635 1159.72 283.013 1163.67 295.919L1258.51 603.776 2829.72 603.776C2845.64 603.776 2858.49 616.679 2858.49 632.523 2858.49 648.416 2845.64 661.32 2829.72 661.32" fill="#005686" fill-rule="evenodd" transform="matrix(1 0 0 -1 770 2129)"/></g></svg>